<?xml version="1.0" standalone="no"?><!DOCTYPE svg PUBLIC "-//W3C//DTD SVG 1.1//EN" "http://www.w3.org/Graphics/SVG/1.1/DTD/svg11.dtd"><svg t="1496102796792" class="icon" style="" viewBox="0 0 1024 1024" version="1.1" xmlns="http://www.w3.org/2000/svg" p-id="2396" xmlns:xlink="http://www.w3.org/1999/xlink" width="200" height="200"><defs><style type="text/css"></style></defs><path d="M756.373194 232.727273C738.962047 232.727273 724.859808 246.613333 724.859808 263.757576L723.473219 263.757576C724.339838 271.406545 724.859808 279.148606 724.859808 287.030303 724.859808 402.711273 629.626356 496.484848 512.144454 496.484848 394.662552 496.484848 299.4291 402.711273 299.4291 287.030303 299.4291 279.148606 299.949072 271.406545 300.815689 263.757576L299.4291 263.757576C299.4291 246.613333 285.32686 232.727273 267.915714 232.727273 250.504569 232.727273 236.402328 246.613333 236.402328 263.757576 236.402328 266.131394 236.73322 268.427636 237.237433 270.646303 236.859273 276.076606 236.402328 281.506909 236.402328 287.030303 236.402328 436.984242 359.856018 558.545455 512.144454 558.545455 664.432891 558.545455 787.88658 436.984242 787.88658 287.030303 787.88658 281.506909 787.429635 276.076606 787.051475 270.646303 787.55569 268.427636 787.88658 266.131394 787.88658 263.757576 787.88658 246.613333 773.784339 232.727273 756.373194 232.727273M945.453507 861.090909C945.453507 899.646061 913.703772 930.909091 874.54839 930.909091L157.618864 930.909091C156.657706 930.909091 155.743818 931.110788 154.798416 931.188364 153.06518 931.048727 151.331944 930.909091 149.740518 930.909091 110.585136 930.909091 78.8354 899.646061 78.8354 861.090909 78.8354 852.883394 78.819643 846.056727 78.819643 836.825212L125.175834 232.727273 126.105479 232.727273C126.105479 155.601455 189.589194 93.090909 267.915714 93.090909 273.241476 93.090909 278.488455 93.432242 283.672407 94.006303L283.672407 93.090909 740.616501 93.090909 740.616501 94.006303C745.800453 93.432242 751.047432 93.090909 756.373194 93.090909 834.699714 93.090909 898.18343 155.601455 898.18343 232.727273L899.207615 232.727273 945.406237 837.445818C946.524964 847.065212 945.453507 852.914424 945.453507 861.090909M1008.559064 837.554424 1008.401496 837.554424C1008.401496 836.732121 1008.511794 835.909818 1008.433009 835.072L961.02112 214.528C960.800528 212.014545 960.186016 209.625212 959.413938 207.32897 946.698287 107.954424 860.745528 31.030303 756.373194 31.030303 752.827938 31.030303 749.361465 31.325091 745.879235 31.557818 744.161756 31.26303 742.412764 31.030303 740.616501 31.030303L283.672407 31.030303C281.876145 31.030303 280.127151 31.26303 278.409672 31.557818 274.927442 31.325091 271.46097 31.030303 267.915714 31.030303 162.771303 31.030303 76.251302 109.071515 64.544079 209.501091 63.913812 211.533576 63.472624 213.659152 63.267787 215.862303L15.855898 833.753212C15.808628 834.234182 15.903168 834.684121 15.871655 835.149576L15.808628 835.149576 15.808628 861.090909C15.808628 933.91903 75.778601 992.969697 149.740518 992.969697 151.521024 992.969697 153.270017 992.783515 155.034767 992.705939 155.901385 992.783515 156.736489 992.969697 157.618864 992.969697L866.670044 992.969697C867.552419 992.969697 868.387523 992.783515 869.254141 992.705939 871.018892 992.783515 872.767884 992.969697 874.54839 992.969697 948.510306 992.969697 1008.480279 933.91903 1008.480279 861.090909 1008.480279 853.131636 1009.094791 847.515152 1008.559064 837.554424" p-id="2397"></path></svg>