<?xml version="1.0" standalone="no"?><!DOCTYPE svg PUBLIC "-//W3C//DTD SVG 1.1//EN" "http://www.w3.org/Graphics/SVG/1.1/DTD/svg11.dtd"><svg t="1496081446266" class="icon" style="" viewBox="0 0 1024 1024" version="1.1" xmlns="http://www.w3.org/2000/svg" p-id="11862" xmlns:xlink="http://www.w3.org/1999/xlink" width="200" height="200"><defs><style type="text/css"></style></defs><path d="M908.357632 323.928064c-29.673472-70.709248-70.77888-130.1504-122.175488-176.678912a34.441216 34.441216 0 0 0-38.023168-5.593088 34.340864 34.340864 0 0 0-19.605504 32.907264c2.732032 52.875264-8.638464 102.744064-19.974144 138.037248-9.80992-27.011072-23.8592-61.39904-42.643456-97.589248C609.472512 106.225664 540.356608 37.19168 460.4928 9.818112a33.486848 33.486848 0 0 0-30.908416 4.913152c-9.345024 6.991872-14.618624 18.19648-14.106624 29.964288 5.115904 118.54848-82.40128 257.538048-127.213568 320.518144-11.962368-39.07584-36.161536-96.342016-82.497536-139.292672-10.674176-9.908224-25.960448-11.870208-38.946816-4.995072-13.152256 6.961152-20.494336 21.456896-18.26816 36.077568 13.5168 88.543232-9.807872 132.143104-36.814848 182.626304C89.120768 481.906688 63.488 529.823744 63.488 606.68928c0 60.416 11.937792 117.241856 35.479552 168.902656 22.542336 49.4592 55.140352 93.036544 96.89088 129.51552 81.840128 71.507968 194.113536 110.891008 316.141568 110.891008 122.025984 0 234.30144-39.380992 316.141568-110.891008 41.750528-36.478976 74.348544-80.05632 96.89088-129.51552C948.574208 723.931136 960.512 667.10528 960.512 606.68928c0-105.1648-17.547264-200.298496-52.154368-282.761216z m-107.167744 550.334464c-74.37312 64.985088-177.078272 100.775936-289.189888 100.775936-112.113664 0-214.816768-35.790848-289.191936-100.775936C145.37728 806.6048 104.448 714.080256 104.448 606.68928c0-66.60096 21.082112-106.010624 43.403264-147.736576 26.118144-48.826368 53.069824-99.203072 43.646976-189.100032 53.579776 60.301312 66.625536 144.500736 66.756608 145.385472l6.672384 45.860864 29.417472-35.80928c6.805504-8.28416 163.923968-201.558016 162.289664-373.22752 81.381376 32.497664 138.53696 115.72224 172.560384 181.086208 39.266304 75.429888 57.346048 144.658432 57.522176 145.340416l13.398016 52.150272 24.645632-47.872c1.964032-3.813376 45.928448-90.482688 45.156352-194.598912C899.784704 314.998784 919.552 503.721984 919.552 606.68928c0 107.390976-40.927232 199.91552-118.362112 267.573248z" fill="#333333" p-id="11863"></path></svg>