<?xml version="1.0" standalone="no"?><!DOCTYPE svg PUBLIC "-//W3C//DTD SVG 1.1//EN" "http://www.w3.org/Graphics/SVG/1.1/DTD/svg11.dtd"><svg t="1496081718348" class="icon" style="" viewBox="0 0 1184 1024" version="1.1" xmlns="http://www.w3.org/2000/svg" p-id="12542" xmlns:xlink="http://www.w3.org/1999/xlink" width="231.25" height="200"><defs><style type="text/css"></style></defs><path d="M611.053425 63.485226c-238.08224 0-431.615725 193.533486-431.615725 431.615725s193.533486 431.615725 431.615725 431.615725 431.615725-193.533486 431.615725-431.615725C1042.66915 257.538904 849.135664 63.485226 611.053425 63.485226zM611.053425 870.911523c-207.361951 0-375.810572-168.448621-375.810572-375.810572s168.448621-375.810572 375.810572-375.810572 375.810572 168.448621 375.810572 375.810572S818.415375 870.911523 611.053425 870.911523z" p-id="12543"></path><path d="M752.29306 537.792905l-46.990771-57.134536c-1.553354-148.103294-92.998956-214.955324-92.998956-214.955324-112.48452 97.081026-99.342421 215.65614-99.342421 215.65614l-44.722152 54.071177c-20.89442 44.158609 13.156549 138.385799 13.156549 138.385799l69.922615-71.851664 59.121384 40.488358 54.526345-40.907403 70.096012 78.346852C780.051139 574.437615 752.29306 537.792905 752.29306 537.792905zM610.699405 459.959021c-21.327915 0.065024-38.667683-17.151921-38.761606-38.47261-0.086699-21.313465 17.144696-38.674908 38.465385-38.754382 21.327915-0.072249 38.674908 17.144696 38.761606 38.47261C649.244264 442.525329 632.012869 459.879547 610.699405 459.959021z" p-id="12544"></path><path d="M561.165467 639.736291l51.470211 29.383682 48.450202-28.256597 0.346795 91.965795-33.826997-34.282166-15.873113 42.171761-20.55485-46.672876-32.432591 34.231592C558.7379 728.284706 557.820337 674.480851 561.165467 639.736291z" p-id="12545"></path></svg>