<?xml version="1.0" standalone="no"?><!DOCTYPE svg PUBLIC "-//W3C//DTD SVG 1.1//EN" "http://www.w3.org/Graphics/SVG/1.1/DTD/svg11.dtd"><svg t="1496081855123" class="icon" style="" viewBox="0 0 1024 1024" version="1.1" xmlns="http://www.w3.org/2000/svg" p-id="13231" xmlns:xlink="http://www.w3.org/1999/xlink" width="200" height="200"><defs><style type="text/css"></style></defs><path d="M851.329359 927.913595v-626.28386h73.652463v626.28386h-73.652463z m-498.358305 0V597.113493h73.652463v330.800102h-73.652463z m248.964258-0.430812V429.988148h73.652463v497.494635h-73.652463z m-498.358305 0v-271.790127h73.652463v271.790127h-73.652463z m10.982122-413.072897c-10.001795 0-19.597337-5.990434-23.876804-14.907525-3.067872-6.315846-3.462868-13.505595-1.116427-20.252253 2.345418-6.744611 7.115048-12.148691 13.428848-15.215539l672.970158-323.750546-1.612731-7.074115H473.359958c-14.605649 0-26.488281-11.882632-26.488281-26.488281 0-14.605649 11.882632-26.489304 26.488281-26.489305h434.178587c12.30935 0 23.12672 8.610098 25.721824 20.471241 2.623757 12.367679-3.350304 24.657586-14.529924 29.874401L126.137839 511.799432c-4.321422 2.160199-8.679683 2.610454-11.57871 2.610454z" p-id="13232"></path></svg>